<svg width="24" height="24" viewBox="0 0 64 64" fill="none" xmlns="http://www.w3.org/2000/svg">
<g clip-path="url(#clip0_30_2)">
<path d="M55.6529 38.2418C55.1464 38.5856 54.555 38.7886 53.9413 38.8292C53.3274 38.8698 52.7139 38.7466 52.1653 38.4725C50.8772 37.7557 50.1829 36.0747 50.1829 33.784V26.7634C50.1829 23.3934 48.828 20.9954 46.5614 20.3445C42.7308 19.2404 39.8703 23.863 38.7663 25.6016L31.9917 36.4043V23.2203C31.9164 20.1797 30.9126 18.3586 29.0141 17.8149C27.7595 17.4523 25.8776 17.6006 24.046 20.3527L8.89911 44.3065C6.88375 40.5077 5.83877 36.2822 5.85468 31.9959C5.85468 17.5594 17.564 5.81743 31.9917 5.81743C46.4192 5.81743 58.1704 17.5594 58.1704 31.9959V32.07C58.1704 32.07 58.1704 32.1195 58.1704 32.1442C58.3126 34.9376 57.3926 37.1623 55.6613 38.2418H55.6529ZM64.0168 32.0041V31.864C63.8997 14.2716 49.5808 0 31.9917 0C14.4026 0 0 14.3541 0 31.9959C0 49.6377 14.3524 64 31.9917 64C40.0818 63.9996 47.8642 60.9446 53.7376 55.4634C54.3077 54.9342 54.6432 54.205 54.6714 53.4338C54.6995 52.6626 54.4182 51.9116 53.8881 51.3434C53.6346 51.067 53.3279 50.8427 52.986 50.6836C52.644 50.5243 52.2735 50.4332 51.8957 50.4156C51.518 50.398 51.1404 50.4542 50.7848 50.5809C50.4291 50.7076 50.1023 50.9023 49.8234 51.1538C47.2946 53.517 44.3073 55.3524 41.0406 56.5498C37.7741 57.7472 34.2954 58.2818 30.8138 58.1218C27.3322 57.9617 23.9194 57.1102 20.7802 55.6182C17.641 54.1264 14.8401 52.0249 12.5457 49.4399L26.1788 27.8512V37.8133C26.1788 42.6007 28.0607 44.1499 29.6413 44.6031C31.2221 45.0562 33.6393 44.7431 36.1736 40.6891L43.701 28.6834C43.9352 28.2961 44.161 27.9665 44.3617 27.6782V33.784C44.3617 38.2582 46.1851 41.8345 49.3801 43.5978C50.8328 44.3705 52.4699 44.7438 54.1196 44.6785C55.7692 44.6133 57.3706 44.1119 58.7558 43.227C62.2687 40.9775 64.1841 36.907 63.9832 32.0041H64.0168Z" fill="#00CE79"/>
</g>
<defs>
<clipPath id="clip0_30_2">
<rect width="64" height="64" fill="white"/>
</clipPath>
</defs>
</svg>
